<?xml version="1.0" encoding="UTF-8"?>
<svg width="26px" height="26px" viewBox="0 0 26 26" version="1.1" xmlns="http://www.w3.org/2000/svg" xmlns:xlink="http://www.w3.org/1999/xlink">
    <!-- Generator: Sketch 42 (36781) - http://www.bohemiancoding.com/sketch -->
    <title>Combined Shape</title>
    <desc>Created with Sketch.</desc>
    <defs></defs>
    <g id="Welcome" stroke="none" stroke-width="1" fill="none" fill-rule="evenodd">
        <path d="M17.6414551,12.6912758 L24.358732,5.97399899 C25.7240688,4.60866214 25.7258046,2.39084894 24.3589696,1.02401391 C22.9949158,-0.340039872 20.7759507,-0.342714728 19.4089845,1.02425152 L12.6917077,7.74152834 L5.97443085,1.02425152 C4.60746461,-0.342714728 2.38849957,-0.340039872 1.02444578,1.02401391 C-0.342389241,2.39084894 -0.340653458,4.60866214 1.02468338,5.97399899 L7.7419602,12.6912758 L1.02468338,19.4085526 C-0.340653458,20.7738895 -0.342389241,22.9917027 1.02444578,24.3585377 C2.38849957,25.7225915 4.60746461,25.7252663 5.97443085,24.3583001 L12.6917077,17.6410233 L19.4089845,24.3583001 C20.7759507,25.7252663 22.9949158,25.7225915 24.3589696,24.3585377 C25.7258046,22.9917027 25.7240688,20.7738895 24.358732,19.4085526 L17.6414551,12.6912758 Z" id="Combined-Shape" fill="#FFFFFF"></path>
    </g>
</svg>