<?xml version="1.0" encoding="UTF-8"?>
<svg width="359px" height="730px" viewBox="0 0 359 730" version="1.1" xmlns="http://www.w3.org/2000/svg" xmlns:xlink="http://www.w3.org/1999/xlink">
    <!-- Generator: Sketch 42 (36781) - http://www.bohemiancoding.com/sketch -->
    <title>Apple iPhone 6 Copy</title>
    <desc>Created with Sketch.</desc>
    <defs></defs>
    <g id="Welcome" stroke="none" stroke-width="1" fill="none" fill-rule="evenodd">
        <g id="Snapchat" transform="translate(-199.000000, -169.000000)" fill="#FFFFFF">
            <path d="M555.832998,323.783037 L556.928673,323.783037 C557.519626,323.783037 558,324.265922 558,324.86159 L558,376.698568 C558,377.293845 557.520351,377.77712 556.928673,377.77712 L555.832998,377.77712 L555.832998,845.006348 C555.832998,874.815658 531.656944,899 501.834271,899 L255.165729,899 C225.33538,899 201.167002,874.826219 201.167002,845.006348 L201.167002,444.009862 L200.071327,444.009862 C199.480374,444.009862 199,443.526978 199,442.93131 L199,391.094331 C199,390.499054 199.479649,390.015779 200.071327,390.015779 L201.167002,390.015779 L201.167002,377.77712 L200.071327,377.77712 C199.480374,377.77712 199,377.294236 199,376.698568 L199,324.86159 C199,324.266312 199.479649,323.783037 200.071327,323.783037 L201.167002,323.783037 L201.167002,290.666667 L200.071327,290.666667 C199.480374,290.666667 199,290.180661 199,289.581143 L199,262.235425 C199,261.637593 199.479649,261.149901 200.071327,261.149901 L201.167002,261.149901 L201.167002,222.993652 C201.167002,193.184342 225.343056,169 255.165729,169 L501.834271,169 C531.66462,169 555.832998,193.173781 555.832998,222.993652 L555.832998,323.783037 Z M222.837022,257.550296 L222.837022,809.009862 L534.162978,809.009862 L534.162978,257.550296 L222.837022,257.550296 Z M378.138833,876.682446 C393.298327,876.682446 405.587525,864.434299 405.587525,849.325444 C405.587525,834.216589 393.298327,821.968442 378.138833,821.968442 C362.979339,821.968442 350.690141,834.216589 350.690141,849.325444 C350.690141,864.434299 362.979339,876.682446 378.138833,876.682446 Z M378.138833,873.802761 C364.575075,873.802761 353.579477,862.843893 353.579477,849.325444 C353.579477,835.806995 364.575075,824.848126 378.138833,824.848126 C391.702591,824.848126 402.698189,835.806995 402.698189,849.325444 C402.698189,862.843893 391.702591,873.802761 378.138833,873.802761 Z M321.796781,220.83432 C324.988253,220.83432 327.575453,218.255762 327.575453,215.074951 C327.575453,211.894139 324.988253,209.315582 321.796781,209.315582 C318.605308,209.315582 316.018109,211.894139 316.018109,215.074951 C316.018109,218.255762 318.605308,220.83432 321.796781,220.83432 Z M378.861167,195.637081 C380.855837,195.637081 382.472837,194.025483 382.472837,192.037475 C382.472837,190.049468 380.855837,188.43787 378.861167,188.43787 C376.866497,188.43787 375.249497,190.049468 375.249497,192.037475 C375.249497,194.025483 376.866497,195.637081 378.861167,195.637081 Z M352.85323,212.195266 C351.259655,212.195266 349.967807,213.487781 349.967807,215.074951 C349.967807,216.665356 351.255786,217.954635 352.85323,217.954635 L404.869104,217.954635 C406.462679,217.954635 407.754527,216.66212 407.754527,215.074951 C407.754527,213.484545 406.466548,212.195266 404.869104,212.195266 L352.85323,212.195266 Z" id="Apple-iPhone-6-Copy"></path>
        </g>
    </g>
</svg>