<?xml version="1.0" encoding="UTF-8"?>
<svg width="730px" height="360px" viewBox="0 0 730 360" version="1.1" xmlns="http://www.w3.org/2000/svg" xmlns:xlink="http://www.w3.org/1999/xlink">
    <!-- Generator: Sketch 42 (36781) - http://www.bohemiancoding.com/sketch -->
    <title>Group 8</title>
    <desc>Created with Sketch.</desc>
    <defs></defs>
    <g id="Welcome" stroke="none" stroke-width="1" fill="none" fill-rule="evenodd">
        <g id="Group-8">
            <rect id="Rectangle-34-Copy-3" fill="#313E5A" x="11" y="136" width="53" height="112"></rect>
            <rect id="Rectangle-34-Copy-2" fill="#313E5A" x="647" y="150" width="65" height="64"></rect>
            <path d="M542.332998,-30.2169625 L543.428673,-30.2169625 C544.019626,-30.2169625 544.5,-29.7340782 544.5,-29.1384103 L544.5,22.698568 C544.5,23.2938455 544.020351,23.7771203 543.428673,23.7771203 L542.332998,23.7771203 L542.332998,491.006348 C542.332998,520.815658 518.156944,545 488.334271,545 L241.665729,545 C211.83538,545 187.667002,520.826219 187.667002,491.006348 L187.667002,90.0098619 L186.571327,90.0098619 C185.980374,90.0098619 185.5,89.5269776 185.5,88.9313097 L185.5,37.0943314 C185.5,36.4990539 185.979649,36.0157791 186.571327,36.0157791 L187.667002,36.0157791 L187.667002,23.7771203 L186.571327,23.7771203 C185.980374,23.7771203 185.5,23.294236 185.5,22.698568 L185.5,-29.1384103 C185.5,-29.7336877 185.979649,-30.2169625 186.571327,-30.2169625 L187.667002,-30.2169625 L187.667002,-63.3333333 L186.571327,-63.3333333 C185.980374,-63.3333333 185.5,-63.8193387 185.5,-64.4188566 L185.5,-91.7645754 C185.5,-92.3624066 185.979649,-92.8500986 186.571327,-92.8500986 L187.667002,-92.8500986 L187.667002,-131.006348 C187.667002,-160.815658 211.843056,-185 241.665729,-185 L488.334271,-185 C518.16462,-185 542.332998,-160.826219 542.332998,-131.006348 L542.332998,-30.2169625 Z M209.337022,-96.4497041 L209.337022,455.009862 L520.662978,455.009862 L520.662978,-96.4497041 L209.337022,-96.4497041 Z M364.638833,522.682446 C379.798327,522.682446 392.087525,510.434299 392.087525,495.325444 C392.087525,480.216589 379.798327,467.968442 364.638833,467.968442 C349.479339,467.968442 337.190141,480.216589 337.190141,495.325444 C337.190141,510.434299 349.479339,522.682446 364.638833,522.682446 Z M364.638833,519.802761 C351.075075,519.802761 340.079477,508.843893 340.079477,495.325444 C340.079477,481.806995 351.075075,470.848126 364.638833,470.848126 C378.202591,470.848126 389.198189,481.806995 389.198189,495.325444 C389.198189,508.843893 378.202591,519.802761 364.638833,519.802761 Z M308.296781,-133.16568 C311.488253,-133.16568 314.075453,-135.744238 314.075453,-138.925049 C314.075453,-142.105861 311.488253,-144.684418 308.296781,-144.684418 C305.105308,-144.684418 302.518109,-142.105861 302.518109,-138.925049 C302.518109,-135.744238 305.105308,-133.16568 308.296781,-133.16568 Z M365.361167,-158.362919 C367.355837,-158.362919 368.972837,-159.974517 368.972837,-161.962525 C368.972837,-163.950532 367.355837,-165.56213 365.361167,-165.56213 C363.366497,-165.56213 361.749497,-163.950532 361.749497,-161.962525 C361.749497,-159.974517 363.366497,-158.362919 365.361167,-158.362919 Z M339.35323,-141.804734 C337.759655,-141.804734 336.467807,-140.512219 336.467807,-138.925049 C336.467807,-137.334644 337.755786,-136.045365 339.35323,-136.045365 L391.369104,-136.045365 C392.962679,-136.045365 394.254527,-137.33788 394.254527,-138.925049 C394.254527,-140.515455 392.966548,-141.804734 391.369104,-141.804734 L339.35323,-141.804734 Z" id="Apple-iPhone-6-Copy" fill="#FFFFFF" transform="translate(365.000000, 180.000000) rotate(-90.000000) translate(-365.000000, -180.000000) "></path>
        </g>
    </g>
</svg>