<?xml version="1.0" encoding="UTF-8"?>
<svg width="226px" height="348px" viewBox="0 0 226 348" version="1.1" xmlns="http://www.w3.org/2000/svg" xmlns:xlink="http://www.w3.org/1999/xlink">
    <!-- Generator: Sketch 42 (36781) - http://www.bohemiancoding.com/sketch -->
    <title>Face Mesh</title>
    <desc>Created with Sketch.</desc>
    <defs></defs>
    <g id="Welcome" stroke="none" stroke-width="1" fill="none" fill-rule="evenodd" stroke-linecap="round" stroke-linejoin="round">
        <g id="Snapchat" transform="translate(-266.000000, -360.000000)" stroke="#FFFFFF">
            <g id="Face-Mesh" transform="translate(266.000000, 360.000000)">
                <polygon id="Path-5" points="29.1367187 29.2135417 72.3229167 5.2265625 112.220052 0.765625 151.027344 3.90625 189.626302 26.5611979 223.640625 91.6393229 225.075521 163.893555 216.082031 236.979167 195.992188 298.88151 148.138021 337.932292 116.699219 347.174479 84.7708333 340.114583 35.6888021 302.550781 13.6614583 239.986979 2.24739583 166.863281 0.915364583 95.3828125"></polygon>
                <polygon id="Path-6" points="84.5273438 339.638021 48.4609375 277.640625 44.3619792 209.58724 34.4160156 156.990885 18.7213542 134.845052 33.9583333 79.9570312 81.3138021 47.6132812 144.516927 47.1171875 191.796875 78.0677083 208.102865 131.729167 194.90625 155.072917 185.453125 209.583333 183.115885 277.351562 148.332031 337.932292 116.674479 301.915365"></polygon>
                <polyline id="Path-7" points="35.8854167 302.154948 48.8580729 277.69401 13.6783854 239.841146 45.0703125 210.138021 2.328125 166.815104 18.7916667 134.022135 0.915364583 95.3828125 33.9583333 79.9570312 29.1367188 29.2135417 81.0923665 47.6132812 112.220052 0.765625 144.516927 47.1171875 189.626302 26.5611979 191.705078 77.9453125 223.68099 91.5989583 208.222656 131.729167 225.075521 164.148438 185.529948 210.278646 216.082031 237.143555 183.615885 276.740885 195.752009 298.737229"></polyline>
                <polyline id="Path-8" points="72.4089355 5.2265625 80.9466146 47.5716146 113.135254 93.7739258 91.1002604 134.4375 85.8859863 156.421875 94.5620117 214.022949 83.7998047 231.536133 48.8580729 277.091797"></polyline>
                <polyline id="Path-9" points="151.027344 3.90625 144.845052 46.9388021 113.199219 93.7739258 136.548528 133.923905 142.604736 155.444336 134.143229 212.185547 146.952148 231.136719 182.873698 277.279948"></polyline>
                <polyline id="Path-10" points="84.7074129 339.04106 65.7460938 277.207031 84.1575521 231.136719 59.5039062 161.446289 44.5913086 210.003906 46.1318359 160.85791 72.4089355 161.205322 109.574707 149.028981 119.657552 149.065104 155.845052 159.348958 182.951823 159.925781 185.529948 210.003906 169.500732 159.925781 147.464844 230.68099 165.282227 276.896973 148.332031 337.932292"></polyline>
                <polyline id="Path-11" points="84.7708333 339.04106 91.1119792 286.783854 96.5429687 277.428385 90.7825521 268.057617 84.1575521 231.309896 93.828125 235.50651 115.044271 235.332031 136.486328 233.884766 146.952148 230.888021 141.770833 267.190104 135.654948 276.541667 140.638021 286.095052 148.332031 337.932292"></polyline>
                <path d="M48.4914515,276.981771 L183.316406,276.981771" id="Path-12"></path>
                <polyline id="Path-13" points="2.328125 166.815104 34.1927083 156.990885 44.8154297 148.181641 59.2792969 146.165039 72.6679688 148.367188 85.7783203 156.546143 102.269775 181.812012 114.356445 175.542969 125.826904 180.966064 142.604736 155.444336 156.475098 147.693604 171.454102 143.47876 184.118164 147.347656 194.90625 155.34375 225.0625 163.893555"></polyline>
                <polyline id="Path-14" points="44.90625 210.003906 83.7998047 231.536133 106.519531 263.705566 115.40625 269.6875 124.893555 264.199219 146.952148 230.620117 185.50293 209.700195"></polyline>
                <polygon id="Path-15" points="65.7460938 277.207031 90.7529297 286.792969 116.758789 301.681641 140.896484 286.621094 165.389323 276.865234 141.944336 267.306641 115.359375 269.6875 90.9296875 268.057617"></polygon>
                <polygon id="Path-16" points="96.6503906 277.091797 115.40625 289.485352 135.586914 276.951172 115.738281 269.6875"></polygon>
                <polyline id="Path-17" points="90.9296875 286.435547 115.515625 289.699219 140.546875 286.509766"></polyline>
                <path d="M116.774414,347.09668 L114.40625,175.373047" id="Path-18"></path>
                <polygon id="Path-19" points="115.590332 235.50651 129.362793 209.785156 136.486328 233.884766 125.427734 264.071289 115.40625 235.50651 106.519531 263.705566 93.8232422 235.282227 100.089844 209.244141"></polygon>
                <polyline id="Path-20" points="59.5039062 161.716797 94.5620117 214.022949 72.5712891 161.446289"></polyline>
                <polyline id="Path-21" points="169.573486 159.77417 134.143229 212.185547 156.017578 159.246094"></polyline>
                <polyline id="Path-22" points="33.9583333 79.9570312 113.212891 93.7739258 43.1450195 116.817871 91.0546875 134.90918 72.4804687 147.973633"></polyline>
                <polyline id="Path-23" points="191.705078 78.0677083 113.212891 93.7739258 184.509766 114.691406 136.548528 133.923905 156.357422 147.685547"></polyline>
                <polyline id="Path-24" points="191.705078 77.9453125 184.509766 114.691406 208.498047 131.713867 183.436035 125.744141 171.109375 143.271484 136.486328 133.923905 183.436035 125.744141 184.509766 114.691406"></polyline>
                <polyline id="Path-25" points="171.376465 143.508301 208.222656 131.668945 183.902344 147.154785"></polyline>
                <polyline id="Path-26" points="33.9583333 79.9570312 43.1450195 116.817871 18.6884766 134.35791 42.9116211 127.048828 59.2272949 146.042725 90.7529297 134.946615 42.9116211 127.048828 43.1450195 116.817871"></polyline>
                <polyline id="Path-27" points="44.5913086 147.976074 18.7916667 134.4375 58.7492676 145.859375"></polyline>
                <path d="M34.5854492,156.783691 L46.0322266,160.777344" id="Path-28"></path>
                <polyline id="Path-29" points="50.2958984 147.593262 50.6191406 160.626953 64.8425293 147.255859 65.4350586 160.880371"></polyline>
                <path d="M194.707031,154.896973 L182.78418,159.904297" id="Path-30"></path>
                <polyline id="Path-31" points="162.076172 146.165039 162.076172 159.275391 176.413086 145.213379 177.216309 159.79834"></polyline>
                <path d="M90.9589844,268.057617 L106.519531,263.705566" id="Path-32"></path>
                <path d="M125.361816,263.539551 L141.570312,267.053223" id="Path-33"></path>
                <polyline id="Path-34" points="90.7825521 268.057617 74.7993164 276.933594 90.9589844 286.706055"></polyline>
                <polyline id="Path-35" points="141.900391 267.367188 157.343262 276.94873 141.049316 286.619629"></polyline>
                <path d="M91.3106887,134.939404 L114.003695,137.343192 L136.548528,133.923905 L119.678598,149.028981 L114.003695,137.343192 L109.739731,149.246049 L91.3106887,134.939404 Z" id="Path-36"></path>
                <path d="M113.135254,93.7739258 L114.117188,137.343192" id="Path-37"></path>
                <polyline id="Path-38" points="94.5620117 214.022949 102.32666 181.54834 100.089844 209.244141 114.579102 175.838379 129.362793 209.710938 125.547363 180.584473 134.143229 212.185547"></polyline>
                <polyline id="Path-39" points="100.529297 209.605957 114.85498 210.554688 129.443359 209.839355"></polyline>
                <polyline id="Path-40" points="102.429199 181.212402 109.574707 148.962891 114.474609 175.70166 119.309082 148.94043 125.547363 180.584473"></polyline>
            </g>
        </g>
    </g>
</svg>